<mxfile host="app.diagrams.net" modified="2022-05-26T08:14:03.451Z" agent="5.0 (Windows NT 6.3; Win64; x64) AppleWebKit/537.36 (KHTML, like Gecko) Chrome/101.0.4951.67 Safari/537.36" etag="tBPMW0SKMdaqSlshvuVm" version="18.1.2" type="github">
  <diagram id="prtHgNgQTEPvFCAcTncT" name="Page-1">
    <mxGraphModel dx="3137" dy="827" grid="1" gridSize="10" guides="1" tooltips="1" connect="1" arrows="1" fold="1" page="1" pageScale="1" pageWidth="827" pageHeight="1169" math="0" shadow="0">
      <root>
        <mxCell id="0" />
        <mxCell id="1" parent="0" />
        <mxCell id="HBv_KIM6TfxmHW6eAgdY-50" value="" style="rounded=0;whiteSpace=wrap;html=1;" vertex="1" parent="1">
          <mxGeometry x="-1040" y="2320" width="520" height="210" as="geometry" />
        </mxCell>
        <mxCell id="HBv_KIM6TfxmHW6eAgdY-37" value="" style="rounded=0;whiteSpace=wrap;html=1;" vertex="1" parent="1">
          <mxGeometry x="-360" y="1430" width="520" height="210" as="geometry" />
        </mxCell>
        <mxCell id="HBv_KIM6TfxmHW6eAgdY-41" value="" style="rounded=1;whiteSpace=wrap;html=1;dashed=1;" vertex="1" parent="1">
          <mxGeometry x="-320" y="1840" width="150" height="50" as="geometry" />
        </mxCell>
        <mxCell id="HBv_KIM6TfxmHW6eAgdY-39" value="" style="rounded=1;whiteSpace=wrap;html=1;dashed=1;" vertex="1" parent="1">
          <mxGeometry x="-180" y="1470" width="160" height="160" as="geometry" />
        </mxCell>
        <mxCell id="HBv_KIM6TfxmHW6eAgdY-17" value="" style="rounded=0;whiteSpace=wrap;html=1;" vertex="1" parent="1">
          <mxGeometry x="-260" y="1190" width="320" height="50" as="geometry" />
        </mxCell>
        <mxCell id="dNxyNK7c78bLwvsdeMH5-11" value="Orgchart" style="swimlane;html=1;startSize=20;horizontal=1;containerType=tree;glass=0;" parent="1" vertex="1">
          <mxGeometry x="40" y="80" width="710" height="290" as="geometry" />
        </mxCell>
        <UserObject label="%name%&lt;br&gt;&lt;i style=&quot;color: gray&quot;&gt;%position%&lt;/i&gt;&lt;br&gt;&lt;a href=&quot;mailto:%email%&quot;&gt;Email&lt;/a&gt;" name="Tessa Miller" position="CFO" location="Office 1" email="me@example.com" placeholders="1" link="https://www.draw.io" id="dNxyNK7c78bLwvsdeMH5-12">
          <mxCell style="label;image=https://cdn3.iconfinder.com/data/icons/user-avatars-1/512/users-3-128.png;whiteSpace=wrap;html=1;rounded=0;glass=0;treeMoving=1;treeFolding=1;" parent="dNxyNK7c78bLwvsdeMH5-11" vertex="1">
            <mxGeometry x="260" y="50" width="180" height="70" as="geometry" />
          </mxCell>
        </UserObject>
        <mxCell id="dNxyNK7c78bLwvsdeMH5-13" value="" style="endArrow=blockThin;endFill=1;fontSize=11;edgeStyle=elbowEdgeStyle;elbow=vertical;rounded=0;" parent="dNxyNK7c78bLwvsdeMH5-11" source="dNxyNK7c78bLwvsdeMH5-12" target="dNxyNK7c78bLwvsdeMH5-14" edge="1">
          <mxGeometry relative="1" as="geometry" />
        </mxCell>
        <UserObject label="%name%&lt;br&gt;&lt;i style=&quot;color: gray&quot;&gt;%position%&lt;/i&gt;&lt;br&gt;&lt;a href=&quot;mailto:%email%&quot;&gt;Email&lt;/a&gt;" name="Edward Morrison" position="Brand Manager" location="Office 2" email="me@example.com" placeholders="1" link="https://www.draw.io" id="dNxyNK7c78bLwvsdeMH5-14">
          <mxCell style="label;image=https://cdn3.iconfinder.com/data/icons/user-avatars-1/512/users-10-3-128.png;whiteSpace=wrap;html=1;rounded=0;glass=0;treeFolding=1;treeMoving=1;" parent="dNxyNK7c78bLwvsdeMH5-11" vertex="1">
            <mxGeometry x="40" y="180" width="180" height="80" as="geometry" />
          </mxCell>
        </UserObject>
        <mxCell id="dNxyNK7c78bLwvsdeMH5-15" value="" style="endArrow=blockThin;endFill=1;fontSize=11;edgeStyle=elbowEdgeStyle;elbow=vertical;rounded=0;" parent="dNxyNK7c78bLwvsdeMH5-11" source="dNxyNK7c78bLwvsdeMH5-12" target="dNxyNK7c78bLwvsdeMH5-16" edge="1">
          <mxGeometry relative="1" as="geometry" />
        </mxCell>
        <UserObject label="%name%&lt;br&gt;&lt;i style=&quot;color: gray&quot;&gt;%position%&lt;/i&gt;&lt;br&gt;&lt;a href=&quot;mailto:%email%&quot;&gt;Email&lt;/a&gt;" name="Evan Valet" position="HR Director" location="Office 4" email="me@example.com" placeholders="1" link="https://www.draw.io" id="dNxyNK7c78bLwvsdeMH5-16">
          <mxCell style="label;image=https://cdn3.iconfinder.com/data/icons/user-avatars-1/512/users-9-2-128.png;whiteSpace=wrap;html=1;rounded=0;glass=0;treeFolding=1;treeMoving=1;" parent="dNxyNK7c78bLwvsdeMH5-11" vertex="1">
            <mxGeometry x="260" y="180" width="180" height="80" as="geometry" />
          </mxCell>
        </UserObject>
        <mxCell id="dNxyNK7c78bLwvsdeMH5-17" value="" style="endArrow=blockThin;endFill=1;fontSize=11;edgeStyle=elbowEdgeStyle;elbow=vertical;rounded=0;" parent="dNxyNK7c78bLwvsdeMH5-11" source="dNxyNK7c78bLwvsdeMH5-12" target="dNxyNK7c78bLwvsdeMH5-18" edge="1">
          <mxGeometry relative="1" as="geometry" />
        </mxCell>
        <UserObject label="%name%&lt;br&gt;&lt;i style=&quot;color: gray&quot;&gt;%position%&lt;/i&gt;&lt;br&gt;&lt;a href=&quot;mailto:%email%&quot;&gt;Email&lt;/a&gt;" name="Alison Donovan" position="System Admin" location="Office 3" email="me@example.com" placeholders="1" link="https://www.draw.io" id="dNxyNK7c78bLwvsdeMH5-18">
          <mxCell style="label;image=https://cdn3.iconfinder.com/data/icons/user-avatars-1/512/users-2-128.png;whiteSpace=wrap;html=1;rounded=0;glass=0;" parent="dNxyNK7c78bLwvsdeMH5-11" vertex="1">
            <mxGeometry x="490" y="180" width="180" height="80" as="geometry" />
          </mxCell>
        </UserObject>
        <mxCell id="HBv_KIM6TfxmHW6eAgdY-1" value="LTFS(12TB)" style="rounded=1;whiteSpace=wrap;html=1;" vertex="1" parent="1">
          <mxGeometry x="360" y="600" width="120" height="20" as="geometry" />
        </mxCell>
        <mxCell id="HBv_KIM6TfxmHW6eAgdY-2" value="&lt;span style=&quot;&quot;&gt;LTFS(12TB)&lt;/span&gt;" style="rounded=1;whiteSpace=wrap;html=1;" vertex="1" parent="1">
          <mxGeometry x="-240" y="1200" width="120" height="20" as="geometry" />
        </mxCell>
        <mxCell id="HBv_KIM6TfxmHW6eAgdY-9" style="edgeStyle=orthogonalEdgeStyle;rounded=0;orthogonalLoop=1;jettySize=auto;html=1;exitX=0;exitY=0.75;exitDx=0;exitDy=0;entryX=1;entryY=0.75;entryDx=0;entryDy=0;" edge="1" parent="1" source="HBv_KIM6TfxmHW6eAgdY-4" target="HBv_KIM6TfxmHW6eAgdY-6">
          <mxGeometry relative="1" as="geometry" />
        </mxCell>
        <mxCell id="HBv_KIM6TfxmHW6eAgdY-10" value="数据库原始路径" style="edgeLabel;html=1;align=center;verticalAlign=middle;resizable=0;points=[];" vertex="1" connectable="0" parent="HBv_KIM6TfxmHW6eAgdY-9">
          <mxGeometry x="0.2838" y="2" relative="1" as="geometry">
            <mxPoint as="offset" />
          </mxGeometry>
        </mxCell>
        <mxCell id="HBv_KIM6TfxmHW6eAgdY-4" value="Storage" style="rounded=1;whiteSpace=wrap;html=1;" vertex="1" parent="1">
          <mxGeometry x="120" y="650" width="120" height="60" as="geometry" />
        </mxCell>
        <mxCell id="HBv_KIM6TfxmHW6eAgdY-5" value="1.&amp;nbsp;确保持续归档文件落在一个磁带上，磁带文件与一体机路径进行关联映射；&lt;br&gt;2.&amp;nbsp;这样读与写不会再一个磁带上&lt;br&gt;3.&amp;nbsp;查询可以立即返回结果，或者异步查询接口，结果显示是否在磁带上，如果在磁带上，却需要读，需要异步等待数据加载完成才能读；" style="text;html=1;strokeColor=none;fillColor=none;align=center;verticalAlign=middle;whiteSpace=wrap;rounded=0;" vertex="1" parent="1">
          <mxGeometry x="160" y="460" width="590" height="60" as="geometry" />
        </mxCell>
        <mxCell id="HBv_KIM6TfxmHW6eAgdY-7" style="edgeStyle=orthogonalEdgeStyle;rounded=0;orthogonalLoop=1;jettySize=auto;html=1;exitX=1;exitY=0.25;exitDx=0;exitDy=0;entryX=0.25;entryY=0;entryDx=0;entryDy=0;" edge="1" parent="1" source="HBv_KIM6TfxmHW6eAgdY-6" target="HBv_KIM6TfxmHW6eAgdY-4">
          <mxGeometry relative="1" as="geometry">
            <mxPoint x="120" y="690" as="targetPoint" />
            <Array as="points">
              <mxPoint x="150" y="600" />
            </Array>
          </mxGeometry>
        </mxCell>
        <mxCell id="HBv_KIM6TfxmHW6eAgdY-8" value="查询" style="edgeLabel;html=1;align=center;verticalAlign=middle;resizable=0;points=[];" vertex="1" connectable="0" parent="HBv_KIM6TfxmHW6eAgdY-7">
          <mxGeometry x="-0.3894" y="-1" relative="1" as="geometry">
            <mxPoint x="1" as="offset" />
          </mxGeometry>
        </mxCell>
        <mxCell id="HBv_KIM6TfxmHW6eAgdY-6" value="" style="rounded=1;whiteSpace=wrap;html=1;" vertex="1" parent="1">
          <mxGeometry x="-210" y="585" width="120" height="60" as="geometry" />
        </mxCell>
        <mxCell id="HBv_KIM6TfxmHW6eAgdY-12" value="本地路径" style="edgeStyle=orthogonalEdgeStyle;rounded=0;orthogonalLoop=1;jettySize=auto;html=1;exitX=0.5;exitY=0;exitDx=0;exitDy=0;exitPerimeter=0;entryX=0.5;entryY=1;entryDx=0;entryDy=0;" edge="1" parent="1" source="HBv_KIM6TfxmHW6eAgdY-11" target="HBv_KIM6TfxmHW6eAgdY-4">
          <mxGeometry relative="1" as="geometry" />
        </mxCell>
        <mxCell id="HBv_KIM6TfxmHW6eAgdY-11" value="" style="shape=cylinder3;whiteSpace=wrap;html=1;boundedLbl=1;backgroundOutline=1;size=15;" vertex="1" parent="1">
          <mxGeometry x="150" y="790" width="60" height="80" as="geometry" />
        </mxCell>
        <mxCell id="HBv_KIM6TfxmHW6eAgdY-13" value="" style="rounded=1;whiteSpace=wrap;html=1;" vertex="1" parent="1">
          <mxGeometry x="-510" y="680" width="120" height="40" as="geometry" />
        </mxCell>
        <mxCell id="HBv_KIM6TfxmHW6eAgdY-14" value="LTFS(12TB)" style="rounded=1;whiteSpace=wrap;html=1;" vertex="1" parent="1">
          <mxGeometry x="-100" y="1200" width="160" height="20" as="geometry" />
        </mxCell>
        <mxCell id="HBv_KIM6TfxmHW6eAgdY-19" value="" style="rounded=0;whiteSpace=wrap;html=1;" vertex="1" parent="1">
          <mxGeometry x="-360" y="1700" width="520" height="50" as="geometry" />
        </mxCell>
        <mxCell id="HBv_KIM6TfxmHW6eAgdY-20" value="&lt;span style=&quot;&quot;&gt;XFS(HDD)&lt;/span&gt;" style="rounded=1;whiteSpace=wrap;html=1;" vertex="1" parent="1">
          <mxGeometry x="-320" y="1478" width="120" height="20" as="geometry" />
        </mxCell>
        <mxCell id="HBv_KIM6TfxmHW6eAgdY-22" value="归档读" style="text;html=1;strokeColor=none;fillColor=none;align=center;verticalAlign=middle;whiteSpace=wrap;rounded=0;" vertex="1" parent="1">
          <mxGeometry x="-300" y="1440" width="60" height="30" as="geometry" />
        </mxCell>
        <mxCell id="HBv_KIM6TfxmHW6eAgdY-26" value="&lt;span style=&quot;&quot;&gt;XFS(HDD)&lt;/span&gt;" style="rounded=1;whiteSpace=wrap;html=1;" vertex="1" parent="1">
          <mxGeometry x="-320" y="1519" width="120" height="20" as="geometry" />
        </mxCell>
        <mxCell id="HBv_KIM6TfxmHW6eAgdY-27" value="&lt;span style=&quot;&quot;&gt;XFS(HDD)&lt;/span&gt;" style="rounded=1;whiteSpace=wrap;html=1;" vertex="1" parent="1">
          <mxGeometry x="-160" y="1478" width="120" height="20" as="geometry" />
        </mxCell>
        <mxCell id="HBv_KIM6TfxmHW6eAgdY-28" value="&lt;span style=&quot;&quot;&gt;XFS(HDD)&lt;/span&gt;" style="rounded=1;whiteSpace=wrap;html=1;" vertex="1" parent="1">
          <mxGeometry x="-160" y="1519" width="120" height="20" as="geometry" />
        </mxCell>
        <mxCell id="HBv_KIM6TfxmHW6eAgdY-32" value="&lt;span style=&quot;&quot;&gt;XFS(HDD)&lt;/span&gt;" style="rounded=1;whiteSpace=wrap;html=1;" vertex="1" parent="1">
          <mxGeometry x="-160" y="1558" width="120" height="20" as="geometry" />
        </mxCell>
        <mxCell id="HBv_KIM6TfxmHW6eAgdY-33" value="&lt;span style=&quot;&quot;&gt;XFS(HDD)&lt;/span&gt;" style="rounded=1;whiteSpace=wrap;html=1;" vertex="1" parent="1">
          <mxGeometry x="-160" y="1600" width="120" height="20" as="geometry" />
        </mxCell>
        <mxCell id="HBv_KIM6TfxmHW6eAgdY-34" value="录像写缓存" style="text;html=1;strokeColor=none;fillColor=none;align=center;verticalAlign=middle;whiteSpace=wrap;rounded=0;" vertex="1" parent="1">
          <mxGeometry x="-130" y="1440" width="70" height="30" as="geometry" />
        </mxCell>
        <mxCell id="HBv_KIM6TfxmHW6eAgdY-35" value="&lt;span style=&quot;&quot;&gt;XFS(SSD/100GB)&lt;/span&gt;" style="rounded=1;whiteSpace=wrap;html=1;" vertex="1" parent="1">
          <mxGeometry y="1478" width="120" height="20" as="geometry" />
        </mxCell>
        <mxCell id="HBv_KIM6TfxmHW6eAgdY-36" value="回放缓存" style="text;html=1;strokeColor=none;fillColor=none;align=center;verticalAlign=middle;whiteSpace=wrap;rounded=0;" vertex="1" parent="1">
          <mxGeometry x="20" y="1448" width="60" height="30" as="geometry" />
        </mxCell>
        <mxCell id="HBv_KIM6TfxmHW6eAgdY-40" value="ping-pong模式" style="text;html=1;strokeColor=none;fillColor=none;align=center;verticalAlign=middle;whiteSpace=wrap;rounded=0;" vertex="1" parent="1">
          <mxGeometry x="-630" y="1520" width="90" height="30" as="geometry" />
        </mxCell>
        <mxCell id="HBv_KIM6TfxmHW6eAgdY-42" value="归档任务" style="rounded=1;whiteSpace=wrap;html=1;" vertex="1" parent="1">
          <mxGeometry x="-320" y="1959" width="120" height="40" as="geometry" />
        </mxCell>
        <mxCell id="HBv_KIM6TfxmHW6eAgdY-52" style="edgeStyle=orthogonalEdgeStyle;rounded=0;orthogonalLoop=1;jettySize=auto;html=1;exitX=1;exitY=0.5;exitDx=0;exitDy=0;entryX=1;entryY=0.5;entryDx=0;entryDy=0;" edge="1" parent="1" source="HBv_KIM6TfxmHW6eAgdY-44" target="HBv_KIM6TfxmHW6eAgdY-42">
          <mxGeometry relative="1" as="geometry" />
        </mxCell>
        <mxCell id="HBv_KIM6TfxmHW6eAgdY-44" value="&lt;span style=&quot;&quot;&gt;XFS(HDD)&lt;/span&gt;" style="rounded=1;whiteSpace=wrap;html=1;fillColor=#fff2cc;strokeColor=#d6b656;gradientColor=#ffd966;" vertex="1" parent="1">
          <mxGeometry x="-320" y="2038" width="120" height="20" as="geometry" />
        </mxCell>
        <mxCell id="HBv_KIM6TfxmHW6eAgdY-55" style="edgeStyle=orthogonalEdgeStyle;rounded=0;orthogonalLoop=1;jettySize=auto;html=1;exitX=1;exitY=0.25;exitDx=0;exitDy=0;entryX=1;entryY=0.5;entryDx=0;entryDy=0;" edge="1" parent="1" source="HBv_KIM6TfxmHW6eAgdY-45" target="HBv_KIM6TfxmHW6eAgdY-42">
          <mxGeometry relative="1" as="geometry" />
        </mxCell>
        <mxCell id="HBv_KIM6TfxmHW6eAgdY-45" value="&lt;span style=&quot;&quot;&gt;XFS(HDD)&lt;/span&gt;" style="rounded=1;whiteSpace=wrap;html=1;fillColor=#fff2cc;gradientColor=#ffd966;strokeColor=#d6b656;" vertex="1" parent="1">
          <mxGeometry x="-320" y="2079" width="120" height="20" as="geometry" />
        </mxCell>
        <mxCell id="HBv_KIM6TfxmHW6eAgdY-46" value="&lt;span style=&quot;&quot;&gt;XFS(HDD)&lt;/span&gt;" style="rounded=1;whiteSpace=wrap;html=1;fillColor=#ffcd28;gradientColor=#ffa500;strokeColor=#d79b00;" vertex="1" parent="1">
          <mxGeometry x="-120" y="2038" width="120" height="20" as="geometry" />
        </mxCell>
        <mxCell id="HBv_KIM6TfxmHW6eAgdY-47" value="&lt;span style=&quot;&quot;&gt;XFS(HDD)&lt;/span&gt;" style="rounded=1;whiteSpace=wrap;html=1;fillColor=#ffcd28;gradientColor=#ffa500;strokeColor=#d79b00;" vertex="1" parent="1">
          <mxGeometry x="-120" y="2079" width="120" height="20" as="geometry" />
        </mxCell>
        <mxCell id="HBv_KIM6TfxmHW6eAgdY-48" value="&lt;span style=&quot;&quot;&gt;XFS(HDD)&lt;/span&gt;" style="rounded=1;whiteSpace=wrap;html=1;fillColor=#ffcd28;gradientColor=#ffa500;strokeColor=#d79b00;" vertex="1" parent="1">
          <mxGeometry x="-120" y="2118" width="120" height="20" as="geometry" />
        </mxCell>
        <mxCell id="HBv_KIM6TfxmHW6eAgdY-49" value="&lt;span style=&quot;&quot;&gt;XFS(HDD)&lt;/span&gt;" style="rounded=1;whiteSpace=wrap;html=1;fillColor=#ffcd28;gradientColor=#ffa500;strokeColor=#d79b00;" vertex="1" parent="1">
          <mxGeometry x="-120" y="2160" width="120" height="20" as="geometry" />
        </mxCell>
        <mxCell id="HBv_KIM6TfxmHW6eAgdY-56" value="&lt;span style=&quot;&quot;&gt;LTFS(12TB)&lt;/span&gt;" style="rounded=1;whiteSpace=wrap;html=1;" vertex="1" parent="1">
          <mxGeometry x="-320" y="2240" width="120" height="20" as="geometry" />
        </mxCell>
        <mxCell id="HBv_KIM6TfxmHW6eAgdY-58" value="&lt;span style=&quot;&quot;&gt;LTFS(12TB)&lt;/span&gt;" style="rounded=1;whiteSpace=wrap;html=1;" vertex="1" parent="1">
          <mxGeometry x="-200" y="2240" width="120" height="20" as="geometry" />
        </mxCell>
        <mxCell id="HBv_KIM6TfxmHW6eAgdY-59" value="&lt;span style=&quot;&quot;&gt;LTFS(12TB)&lt;/span&gt;" style="rounded=1;whiteSpace=wrap;html=1;" vertex="1" parent="1">
          <mxGeometry x="-320" y="2260" width="120" height="20" as="geometry" />
        </mxCell>
        <mxCell id="HBv_KIM6TfxmHW6eAgdY-61" value="&lt;span style=&quot;&quot;&gt;LTFS(12TB)&lt;/span&gt;" style="rounded=1;whiteSpace=wrap;html=1;" vertex="1" parent="1">
          <mxGeometry x="-80" y="2240" width="120" height="20" as="geometry" />
        </mxCell>
        <mxCell id="HBv_KIM6TfxmHW6eAgdY-62" value="&lt;span style=&quot;&quot;&gt;LTFS(12TB)&lt;/span&gt;" style="rounded=1;whiteSpace=wrap;html=1;" vertex="1" parent="1">
          <mxGeometry x="-200" y="2260" width="120" height="20" as="geometry" />
        </mxCell>
        <mxCell id="HBv_KIM6TfxmHW6eAgdY-63" value="&lt;span style=&quot;&quot;&gt;LTFS(12TB)&lt;/span&gt;" style="rounded=1;whiteSpace=wrap;html=1;" vertex="1" parent="1">
          <mxGeometry x="-80" y="2260" width="120" height="20" as="geometry" />
        </mxCell>
        <mxCell id="HBv_KIM6TfxmHW6eAgdY-66" value="&lt;span style=&quot;&quot;&gt;...&lt;/span&gt;" style="rounded=1;whiteSpace=wrap;html=1;" vertex="1" parent="1">
          <mxGeometry x="-320" y="2280" width="120" height="20" as="geometry" />
        </mxCell>
        <mxCell id="HBv_KIM6TfxmHW6eAgdY-67" value="&lt;span style=&quot;&quot;&gt;...&lt;/span&gt;" style="rounded=1;whiteSpace=wrap;html=1;" vertex="1" parent="1">
          <mxGeometry x="-200" y="2280" width="120" height="20" as="geometry" />
        </mxCell>
        <mxCell id="HBv_KIM6TfxmHW6eAgdY-70" value="&lt;span style=&quot;&quot;&gt;...&lt;/span&gt;" style="rounded=1;whiteSpace=wrap;html=1;" vertex="1" parent="1">
          <mxGeometry x="-80" y="2280" width="120" height="20" as="geometry" />
        </mxCell>
      </root>
    </mxGraphModel>
  </diagram>
</mxfile>
